# Blender v2.79 (sub 0) OBJ File: 'minebase.blend'
# www.blender.org
mtllib bodymodel.mtl
o Right_Arm
v 0.500000 0.234735 -0.231631
v 0.250000 0.234735 -0.231631
v 0.250000 0.973341 -0.101395
v 0.500000 0.973341 -0.101395
v 0.500000 0.191323 0.014571
v 0.500000 0.929929 0.144807
v 0.250000 0.191323 0.014571
v 0.250000 0.929929 0.144807
vt 0.687500 0.500000
vt 0.750000 0.500000
vt 0.750000 0.687500
vt 0.687500 0.687500
vt 0.625000 0.500000
vt 0.625000 0.687500
vt 0.812500 0.500000
vt 0.875000 0.500000
vt 0.875000 0.687500
vt 0.812500 0.687500
vt 0.750000 0.750000
vt 0.687500 0.750000
vt 0.812500 0.687500
vt 0.750000 0.687500
vt 0.750000 0.750000
vt 0.812500 0.750000
vn 0.0000 0.1736 -0.9848
vn 1.0000 0.0000 0.0000
vn 0.0000 -0.1736 0.9848
vn -1.0000 0.0000 0.0000
vn 0.0000 0.9848 0.1736
vn 0.0000 -0.9848 -0.1736
usemtl m_8ba20f3a-b289-b52e-2552-20e10bc271dc
s 1
f 1/1/1 2/2/1 3/3/1 4/4/1
f 5/5/2 1/1/2 4/4/2 6/6/2
f 7/7/3 5/8/3 6/9/3 8/10/3
f 2/2/4 7/7/4 8/10/4 3/3/4
f 8/11/5 6/12/5 4/4/5 3/3/5
f 2/13/6 1/14/6 5/15/6 7/16/6
o Left_Leg_Layer
v -0.003672 -0.530504 -0.271438
v -0.284751 -0.520688 -0.271438
v -0.257900 0.248224 -0.135775
v 0.023179 0.238409 -0.135775
v -0.005377 -0.579313 0.005539
v 0.021474 0.189600 0.141202
v -0.286456 -0.569497 0.005539
v -0.259605 0.199415 0.141202
vt 0.062500 0.000000
vt 0.125000 0.000000
vt 0.125000 0.187500
vt 0.062500 0.187500
vt 0.000000 0.000000
vt 0.000000 0.187500
vt 0.187500 0.000000
vt 0.250000 0.000000
vt 0.250000 0.187500
vt 0.187500 0.187500
vt 0.125000 0.250000
vt 0.062500 0.250000
vt 0.187500 0.187500
vt 0.125000 0.187500
vt 0.125000 0.250000
vt 0.187500 0.250000
vn 0.0061 0.1735 -0.9848
vn 0.9994 -0.0349 -0.0000
vn -0.0061 -0.1735 0.9848
vn -0.9994 0.0349 0.0000
vn 0.0344 0.9842 0.1736
vn -0.0344 -0.9842 -0.1736
usemtl m_8ba20f3a-b289-b52e-2552-20e10bc271dc
s 1
f 9/17/7 10/18/7 11/19/7 12/20/7
f 13/21/8 9/17/8 12/20/8 14/22/8
f 15/23/9 13/24/9 14/25/9 16/26/9
f 10/18/10 15/23/10 16/26/10 11/19/10
f 16/27/11 14/28/11 12/20/11 11/19/11
f 10/29/12 9/30/12 13/31/12 15/32/12
o Body
v 0.250000 0.203534 -0.125000
v -0.250000 0.203534 -0.125000
v -0.250000 0.953534 -0.125000
v 0.250000 0.953534 -0.125000
v 0.250000 0.203534 0.125000
v 0.250000 0.953534 0.125000
v -0.250000 0.203534 0.125000
v -0.250000 0.953534 0.125000
vt 0.312500 0.500000
vt 0.437500 0.500000
vt 0.437500 0.687500
vt 0.312500 0.687500
vt 0.250000 0.500000
vt 0.250000 0.687500
vt 0.500000 0.500000
vt 0.625000 0.500000
vt 0.625000 0.687500
vt 0.500000 0.687500
vt 0.437500 0.750000
vt 0.312500 0.750000
vt 0.562500 0.687500
vt 0.437500 0.687500
vt 0.437500 0.750000
vt 0.562500 0.750000
vn 0.0000 0.0000 -1.0000
vn 1.0000 0.0000 0.0000
vn 0.0000 -0.0000 1.0000
vn -1.0000 0.0000 0.0000
vn 0.0000 1.0000 0.0000
vn 0.0000 -1.0000 0.0000
usemtl m_8ba20f3a-b289-b52e-2552-20e10bc271dc
s 1
f 17/33/13 18/34/13 19/35/13 20/36/13
f 21/37/14 17/33/14 20/36/14 22/38/14
f 23/39/15 21/40/15 22/41/15 24/42/15
f 18/34/16 23/39/16 24/42/16 19/35/16
f 24/43/17 22/44/17 20/36/17 19/35/17
f 18/45/18 17/46/18 21/47/18 23/48/18
o Head
v 0.270718 0.979666 -0.225895
v -0.227379 0.979666 -0.269473
v -0.231934 1.476927 -0.217408
v 0.266163 1.476927 -0.173830
v 0.227379 0.927402 0.269474
v 0.222824 1.424663 0.321539
v -0.270718 0.927402 0.225896
v -0.275273 1.424663 0.277961
vt 0.125000 0.750000
vt 0.250000 0.750000
vt 0.250000 0.875000
vt 0.125000 0.875000
vt 0.000000 0.750000
vt 0.000000 0.875000
vt 0.375000 0.750000
vt 0.500000 0.750000
vt 0.500000 0.875000
vt 0.375000 0.875000
vt 0.250000 1.000000
vt 0.125000 1.000000
vt 0.375000 0.875000
vt 0.250000 0.875000
vt 0.250000 1.000000
vt 0.375000 1.000000
vn 0.0867 0.1045 -0.9907
vn 0.9962 0.0000 0.0872
vn -0.0867 -0.1045 0.9907
vn -0.9962 0.0000 -0.0872
vn -0.0091 0.9945 0.1041
vn 0.0091 -0.9945 -0.1041
usemtl m_8ba20f3a-b289-b52e-2552-20e10bc271dc
s 1
f 25/49/19 26/50/19 27/51/19 28/52/19
f 29/53/20 25/49/20 28/52/20 30/54/20
f 31/55/21 29/56/21 30/57/21 32/58/21
f 26/50/22 31/55/22 32/58/22 27/51/22
f 32/59/23 30/60/23 28/52/23 27/51/23
f 26/61/24 25/62/24 29/63/24 31/64/24
o Right_Leg
v 0.270200 -0.551712 0.020403
v 0.020352 -0.560437 0.020403
v -0.005341 0.175335 -0.122703
v 0.244506 0.184060 -0.122703
v 0.268535 -0.504039 0.265810
v 0.242841 0.231733 0.122704
v 0.018687 -0.512764 0.265810
v -0.007006 0.223008 0.122704
vt 0.062500 0.500000
vt 0.125000 0.500000
vt 0.125000 0.687500
vt 0.062500 0.687500
vt 0.000000 0.500000
vt 0.000000 0.687500
vt 0.187500 0.500000
vt 0.250000 0.500000
vt 0.250000 0.687500
vt 0.187500 0.687500
vt 0.125000 0.750000
vt 0.062500 0.750000
vt 0.187500 0.687500
vt 0.125000 0.687500
vt 0.125000 0.750000
vt 0.187500 0.750000
vn 0.0067 -0.1907 -0.9816
vn 0.9994 0.0349 -0.0000
vn -0.0067 0.1907 0.9816
vn -0.9994 -0.0349 -0.0000
vn -0.0343 0.9810 -0.1908
vn 0.0343 -0.9810 0.1908
usemtl m_8ba20f3a-b289-b52e-2552-20e10bc271dc
s 1
f 33/65/25 34/66/25 35/67/25 36/68/25
f 37/69/26 33/65/26 36/68/26 38/70/26
f 39/71/27 37/72/27 38/73/27 40/74/27
f 34/66/28 39/71/28 40/74/28 35/67/28
f 40/75/29 38/76/29 36/68/29 35/67/29
f 34/77/30 33/78/30 37/79/30 39/80/30
o Right_Leg_Layer
v 0.286455 -0.569475 0.008047
v 0.005376 -0.579291 0.008047
v -0.021388 0.187138 -0.141023
v 0.259690 0.196954 -0.141023
v 0.284582 -0.515843 0.284129
v 0.257818 0.250586 0.135060
v 0.003503 -0.525658 0.284129
v -0.023261 0.240771 0.135060
vt 0.062500 0.250000
vt 0.125000 0.250000
vt 0.125000 0.437500
vt 0.062500 0.437500
vt 0.000000 0.250000
vt 0.000000 0.437500
vt 0.187500 0.250000
vt 0.250000 0.250000
vt 0.250000 0.437500
vt 0.187500 0.437500
vt 0.125000 0.500000
vt 0.062500 0.500000
vt 0.187500 0.437500
vt 0.125000 0.437500
vt 0.125000 0.500000
vt 0.187500 0.500000
vn 0.0067 -0.1907 -0.9816
vn 0.9994 0.0349 0.0000
vn -0.0067 0.1907 0.9816
vn -0.9994 -0.0349 -0.0000
vn -0.0343 0.9810 -0.1908
vn 0.0343 -0.9810 0.1908
usemtl m_8ba20f3a-b289-b52e-2552-20e10bc271dc
s 1
f 41/81/31 42/82/31 43/83/31 44/84/31
f 45/85/32 41/81/32 44/84/32 46/86/32
f 47/87/33 45/88/33 46/89/33 48/90/33
f 42/82/34 47/87/34 48/90/34 43/83/34
f 48/91/35 46/92/35 44/84/35 43/83/35
f 42/93/36 41/94/36 45/95/36 47/96/36
o Body_Layer
v 0.265625 0.187909 -0.140625
v -0.265625 0.187909 -0.140625
v -0.265625 0.969159 -0.140625
v 0.265625 0.969159 -0.140625
v 0.265625 0.187909 0.140625
v 0.265625 0.969159 0.140625
v -0.265625 0.187909 0.140625
v -0.265625 0.969159 0.140625
vt 0.312500 0.250000
vt 0.437500 0.250000
vt 0.437500 0.437500
vt 0.312500 0.437500
vt 0.250000 0.250000
vt 0.250000 0.437500
vt 0.500000 0.250000
vt 0.625000 0.250000
vt 0.625000 0.437500
vt 0.500000 0.437500
vt 0.437500 0.500000
vt 0.312500 0.500000
vt 0.562500 0.437500
vt 0.437500 0.437500
vt 0.437500 0.500000
vt 0.562500 0.500000
vn 0.0000 0.0000 -1.0000
vn 1.0000 0.0000 0.0000
vn 0.0000 -0.0000 1.0000
vn -1.0000 0.0000 0.0000
vn 0.0000 1.0000 0.0000
vn 0.0000 -1.0000 0.0000
usemtl m_8ba20f3a-b289-b52e-2552-20e10bc271dc
s 1
f 49/97/37 50/98/37 51/99/37 52/100/37
f 53/101/38 49/97/38 52/100/38 54/102/38
f 55/103/39 53/104/39 54/105/39 56/106/39
f 50/98/40 55/103/40 56/106/40 51/99/40
f 56/107/41 54/108/41 52/100/41 51/99/41
f 50/109/42 49/110/42 53/111/42 55/112/42
o Left_Arm
v -0.250000 0.191203 0.007676
v -0.500000 0.191203 0.007676
v -0.500000 0.924813 -0.148257
v -0.250000 0.924813 -0.148257
v -0.250000 0.243180 0.252213
v -0.250000 0.976791 0.096280
v -0.500000 0.243180 0.252213
v -0.500000 0.976791 0.096280
vt 0.562500 0.000000
vt 0.625000 0.000000
vt 0.625000 0.187500
vt 0.562500 0.187500
vt 0.500000 0.000000
vt 0.500000 0.187500
vt 0.687500 0.000000
vt 0.750000 0.000000
vt 0.750000 0.187500
vt 0.687500 0.187500
vt 0.625000 0.250000
vt 0.562500 0.250000
vt 0.687500 0.187500
vt 0.625000 0.187500
vt 0.625000 0.250000
vt 0.687500 0.250000
vn 0.0000 -0.2079 -0.9781
vn 1.0000 0.0000 0.0000
vn 0.0000 0.2079 0.9781
vn -1.0000 0.0000 0.0000
vn 0.0000 0.9781 -0.2079
vn 0.0000 -0.9781 0.2079
usemtl m_8ba20f3a-b289-b52e-2552-20e10bc271dc
s 1
f 57/113/43 58/114/43 59/115/43 60/116/43
f 61/117/44 57/113/44 60/116/44 62/118/44
f 63/119/45 61/120/45 62/121/45 64/122/45
f 58/114/46 63/119/46 64/122/46 59/115/46
f 64/123/47 62/124/47 60/116/47 59/115/47
f 58/125/48 57/126/48 61/127/48 63/128/48
o Left_Leg
v -0.018846 -0.517292 -0.253337
v -0.268693 -0.508567 -0.253337
v -0.242916 0.229589 -0.123101
v 0.006931 0.220864 -0.123101
v -0.020361 -0.560677 -0.007135
v 0.005416 0.177478 0.123101
v -0.270208 -0.551953 -0.007135
v -0.244431 0.186203 0.123101
vt 0.312500 0.000000
vt 0.375000 0.000000
vt 0.375000 0.187500
vt 0.312500 0.187500
vt 0.250000 0.000000
vt 0.250000 0.187500
vt 0.437500 0.000000
vt 0.500000 0.000000
vt 0.500000 0.187500
vt 0.437500 0.187500
vt 0.375000 0.250000
vt 0.312500 0.250000
vt 0.437500 0.187500
vt 0.375000 0.187500
vt 0.375000 0.250000
vt 0.437500 0.250000
vn 0.0061 0.1735 -0.9848
vn 0.9994 -0.0349 0.0000
vn -0.0061 -0.1735 0.9848
vn -0.9994 0.0349 0.0000
vn 0.0344 0.9842 0.1736
vn -0.0344 -0.9842 -0.1736
usemtl m_8ba20f3a-b289-b52e-2552-20e10bc271dc
s 1
f 65/129/49 66/130/49 67/131/49 68/132/49
f 69/133/50 65/129/50 68/132/50 70/134/50
f 71/135/51 69/136/51 70/137/51 72/138/51
f 66/130/52 71/135/52 72/138/52 67/131/52
f 72/139/53 70/140/53 68/132/53 67/131/53
f 66/141/54 65/142/54 69/143/54 71/144/54
